<?xml version="1.0" encoding="UTF-8" standalone="no"?>
<!DOCTYPE svg PUBLIC "-//W3C//DTD SVG 1.1//EN" "http://www.w3.org/Graphics/SVG/1.1/DTD/svg11.dtd">
<svg width="100%" height="100%" viewBox="0 0 398 328" version="1.1" xmlns="http://www.w3.org/2000/svg" xmlns:xlink="http://www.w3.org/1999/xlink" xml:space="preserve" xmlns:serif="http://www.serif.com/" style="fill-rule:evenodd;clip-rule:evenodd;stroke-linejoin:round;stroke-miterlimit:1.41421;">
    <g transform="matrix(1,0,0,1,-116,-3079)">
        <g id="key-card" transform="matrix(0.802419,0,0,0.802419,315,3278)">
            <clipPath id="_clip1">
                <rect x="-248" y="-248" width="496" height="408.764"/>
            </clipPath>
            <g clip-path="url(#_clip1)">
                <g transform="matrix(1,0,0,1,-248,-248)">
                    <path d="M128,8L128,488L288,488L288,8L128,8Z" style="fill:rgb(236,236,236);fill-rule:nonzero;"/>
                    <rect x="128" y="328" width="128" height="24" style="fill:rgb(182,193,206);"/>
                    <path d="M248,88L168,88C163.584,88 160,84.416 160,80L160,48C160,43.584 163.584,40 168,40L248,40C252.416,40 256,43.584 256,48L256,80C256,84.416 252.416,88 248,88Z" style="fill:rgb(57,195,252);fill-rule:nonzero;"/>
                    <path d="M256,80L256,48C256,43.584 252.416,40 248,40L232,40L224,88L248,88C252.416,88 256,84.416 256,80Z" style="fill:rgb(20,140,224);fill-rule:nonzero;"/>
                    <rect x="8" y="296" width="240" height="32" style="fill:rgb(140,149,164);"/>
                    <circle cx="208" cy="408" r="48" style="fill:rgb(211,160,108);"/>
                    <path d="M208,432C185.64,432 166.912,416.688 161.576,396C160.584,399.84 160,403.848 160,408C160,434.512 181.488,456 208,456C234.512,456 256,434.512 256,408C256,403.848 255.416,399.84 254.424,396C249.088,416.688 230.36,432 208,432Z" style="fill:rgb(178,121,70);fill-rule:nonzero;"/>
                    <path d="M208,272C194.744,272 184,282.744 184,296L232,296C232,282.744 221.256,272 208,272Z" style="fill:rgb(140,149,164);fill-rule:nonzero;"/>
                    <path d="M472,408L344,408C335.16,408 328,400.84 328,392L328,168C328,159.16 335.16,152 344,152L472,152C480.84,152 488,159.16 488,168L488,392C488,400.84 480.84,408 472,408Z" style="fill:rgb(146,224,192);fill-rule:nonzero;"/>
                    <g>
                        <path d="M344,408L376,408L376,152L344,152C335.16,152 328,159.16 328,168L328,392C328,400.84 335.16,408 344,408Z" style="fill:rgb(236,236,236);fill-rule:nonzero;"/>
                        <circle cx="432" cy="224" r="24" style="fill:rgb(236,236,236);"/>
                    </g>
                    <path d="M120,288L0,288L0,336L120,336L120,496L296,496L296,0L120,0L120,288ZM16,304L240,304L240,320L16,320L16,304ZM194.224,288C197,283.24 202.104,280 208,280C213.896,280 219,283.24 221.776,288L194.224,288ZM280,16L280,480L136,480L136,336L256,336L256,288L238.864,288C235.288,274.232 222.872,264 208,264C193.128,264 180.712,274.232 177.136,288L136,288L136,16L280,16Z" style="fill-rule:nonzero;"/>
                    <path d="M168,96L248,96C256.824,96 264,88.824 264,80L264,48C264,39.176 256.824,32 248,32L168,32C159.176,32 152,39.176 152,48L152,80C152,88.824 159.176,96 168,96ZM168,48L248,48L248.008,80L168,80L168,48Z" style="fill-rule:nonzero;"/>
                    <rect x="200" y="152" width="16" height="16"/>
                    <rect x="200" y="112" width="16" height="16"/>
                    <rect x="200" y="192" width="16" height="16"/>
                    <path d="M208,352C177.128,352 152,377.128 152,408C152,438.872 177.128,464 208,464C238.872,464 264,438.872 264,408C264,377.128 238.872,352 208,352ZM208,448C185.944,448 168,430.056 168,408C168,385.944 185.944,368 208,368C230.056,368 248,385.944 248,408C248,430.056 230.056,448 208,448Z" style="fill-rule:nonzero;"/>
                    <path d="M208,384L208,400C212.416,400 216,403.584 216,408L232,408C232,394.768 221.232,384 208,384Z" style="fill-rule:nonzero;"/>
                    <path d="M472,144L344,144C330.768,144 320,154.768 320,168L320,392C320,405.232 330.768,416 344,416L472,416C485.232,416 496,405.232 496,392L496,168C496,154.768 485.232,144 472,144ZM336,392L336,168C336,163.592 339.584,160 344,160L368,160L368,400L344,400C339.584,400 336,396.416 336,392ZM480,392C480,396.416 476.416,400 472,400L384,400L384,160L472,160C476.416,160 480,163.592 480,168L480,392Z" style="fill-rule:nonzero;"/>
                    <path d="M432,192C414.352,192 400,206.352 400,224C400,238.864 410.232,251.288 424,254.864L424,328L408,328L408,344L424,344L424,360L408,360L408,376L440,376L440,254.864C453.768,251.288 464,238.864 464,224C464,206.352 449.648,192 432,192ZM432,240C423.176,240 416,232.824 416,224C416,215.176 423.176,208 432,208C440.824,208 448,215.176 448,224C448,232.824 440.824,240 432,240Z" style="fill-rule:nonzero;"/>
                    <rect x="424" y="216" width="16" height="16"/>
                    <path d="M391.024,87.04L402.352,98.336C405.352,95.32 410.648,95.32 413.648,98.336L424.976,87.04C415.928,77.96 400.072,77.96 391.024,87.04Z" style="fill-rule:nonzero;"/>
                    <path d="M453.256,58.744C441.16,46.656 425.088,40 408,40C390.904,40 374.832,46.656 362.752,58.744L374.064,70.056C383.136,60.992 395.176,56 408,56C420.816,56 432.872,60.992 441.944,70.064L453.256,58.744Z" style="fill-rule:nonzero;"/>
                    <path d="M408,16C431.504,16 453.6,25.152 470.224,41.776L481.536,30.464C461.888,10.816 435.776,0 408,0C380.224,0 354.112,10.816 334.464,30.464L345.776,41.776C362.4,25.152 384.496,16 408,16Z" style="fill-rule:nonzero;"/>
                </g>
            </g>
        </g>
    </g>
</svg>
