<?xml version="1.0" encoding="UTF-8" standalone="no"?><!DOCTYPE svg PUBLIC "-//W3C//DTD SVG 1.1//EN" "http://www.w3.org/Graphics/SVG/1.1/DTD/svg11.dtd"><svg width="100%" height="100%" viewBox="0 0 167 167" version="1.1" xmlns="http://www.w3.org/2000/svg" xmlns:xlink="http://www.w3.org/1999/xlink" xml:space="preserve" xmlns:serif="http://www.serif.com/" style="fill-rule:evenodd;clip-rule:evenodd;stroke-linejoin:round;stroke-miterlimit:1.41421;"><path d="M166.156,16.224c0,-8.954 -7.27,-16.224 -16.224,-16.224l-133.708,0c-8.954,0 -16.224,7.27 -16.224,16.224l0,133.708c0,8.954 7.27,16.224 16.224,16.224l133.708,0c8.954,0 16.224,-7.27 16.224,-16.224l0,-133.708Z" style="fill:#235694;"/><clipPath id="_clip1"><path d="M166.156,16.224c0,-8.954 -7.27,-16.224 -16.224,-16.224l-133.708,0c-8.954,0 -16.224,7.27 -16.224,16.224l0,133.708c0,8.954 7.27,16.224 16.224,16.224l133.708,0c8.954,0 16.224,-7.27 16.224,-16.224l0,-133.708Z"/></clipPath><g clip-path="url(#_clip1)"><circle cx="0" cy="166.156" r="135.405" style="fill-opacity:0.137255;"/><circle cx="166.156" cy="0" r="118.365" style="fill-opacity:0.137255;"/></g><g transform="matrix(0.37487,0,0,0.37487,-194.976,-783.657)"><path d="M666.475,2211.11c0,6.721 -2.607,12.456 -7.821,17.207c-5.214,4.751 -11.645,7.126 -19.293,7.126c-7.647,0 -14.078,-2.375 -19.292,-7.126c-5.214,-4.751 -7.822,-10.486 -7.822,-17.207c0,-6.721 2.608,-12.456 7.822,-17.207c5.214,-4.751 11.645,-7.126 19.292,-7.126c7.648,0 14.079,2.375 19.293,7.126c5.214,4.751 7.821,10.486 7.821,17.207Zm-3.128,67.785l0,136.961c0,6.025 -2.318,11.123 -6.952,15.295c-4.635,4.171 -10.313,6.257 -17.034,6.257c-6.72,0 -12.398,-2.086 -17.033,-6.257c-4.635,-4.172 -6.952,-9.27 -6.952,-15.295l0,-136.961c0,-5.794 2.317,-10.776 6.952,-14.947c4.635,-4.172 10.313,-6.258 17.033,-6.258c6.721,0 12.399,2.086 17.034,6.258c4.634,4.171 6.952,9.153 6.952,14.947Z" style="fill:#fff;fill-rule:nonzero;stroke:#fff;stroke-width:0.64px;"/><path d="M738.432,2378.32l-15.643,51.447c-1.159,2.086 -2.839,3.998 -5.04,5.736c-2.202,1.738 -4.23,2.607 -6.084,2.607c-3.244,0 -6.083,-1.043 -8.516,-3.129c-2.433,-2.085 -3.65,-4.866 -3.65,-8.342c0,-1.623 0.232,-3.129 0.695,-4.519l69.176,-218.998c1.39,-4.867 3.244,-8.922 5.561,-12.167c2.318,-3.244 5.794,-4.866 10.429,-4.866c4.403,0 7.821,1.68 10.255,5.04c2.433,3.36 4.461,7.358 6.083,11.993l69.175,218.998c0,0.463 0.058,1.158 0.174,2.085c0.116,0.927 0.174,1.738 0.174,2.434c0,3.476 -1.159,6.257 -3.476,8.342c-2.318,2.086 -5.214,3.129 -8.691,3.129c-2.085,0 -4.287,-0.753 -6.604,-2.26c-2.318,-1.506 -3.824,-3.534 -4.519,-6.083l-15.991,-51.447l-93.508,0Zm46.928,-154.341l-40.323,131.746l80.299,0l-39.976,-131.746Z" style="fill:#fff;fill-rule:nonzero;stroke:#fff;stroke-width:0.64px;"/></g></svg>