<?xml version="1.0" encoding="UTF-8" standalone="no"?><!DOCTYPE svg PUBLIC "-//W3C//DTD SVG 1.1//EN" "http://www.w3.org/Graphics/SVG/1.1/DTD/svg11.dtd"><svg width="100%" height="100%" viewBox="0 0 337 102" version="1.1" xmlns="http://www.w3.org/2000/svg" xmlns:xlink="http://www.w3.org/1999/xlink" xml:space="preserve" xmlns:serif="http://www.serif.com/" style="fill-rule:evenodd;clip-rule:evenodd;stroke-linejoin:round;stroke-miterlimit:1.41421;"><g transform="matrix(0.24,0,0,0.24,-86.9394,-224.007)"><path d="M416.475,1056.14c0,6.72 -2.607,12.456 -7.821,17.207c-5.214,4.75 -11.645,7.126 -19.293,7.126c-7.647,0 -14.078,-2.376 -19.292,-7.126c-5.214,-4.751 -7.822,-10.487 -7.822,-17.207c0,-6.721 2.608,-12.457 7.822,-17.207c5.214,-4.751 11.645,-7.126 19.292,-7.126c7.648,0 14.079,2.375 19.293,7.126c5.214,4.75 7.821,10.486 7.821,17.207Zm-3.128,67.785l0,136.96c0,6.025 -2.318,11.124 -6.952,15.295c-4.635,4.172 -10.313,6.257 -17.034,6.257c-6.72,0 -12.398,-2.085 -17.033,-6.257c-4.635,-4.171 -6.952,-9.27 -6.952,-15.295l0,-136.96c0,-5.794 2.317,-10.776 6.952,-14.948c4.635,-4.171 10.313,-6.257 17.033,-6.257c6.721,0 12.399,2.086 17.034,6.257c4.634,4.172 6.952,9.154 6.952,14.948Z" style="fill:#194476;fill-rule:nonzero;"/><path d="M510.332,1155.9l0,104.98c0,6.025 -1.97,11.066 -5.91,15.121c-3.939,4.056 -9.965,6.084 -18.076,6.084c-8.111,0 -14.136,-2.028 -18.076,-6.084c-3.94,-4.055 -5.909,-9.096 -5.909,-15.121l0,-105.327c0,-5.794 -0.29,-9.386 -0.869,-10.776c-0.58,-1.391 -1.217,-2.665 -1.912,-3.824c-2.549,-3.245 -4.172,-5.736 -4.867,-7.474c-0.695,-1.738 -1.043,-3.766 -1.043,-6.083c0,-5.794 2.202,-10.602 6.605,-14.426c4.403,-3.824 9.965,-5.736 16.686,-5.736c6.952,0 13.093,3.36 18.423,10.081c7.879,-5.33 15.759,-9.154 23.638,-11.471c7.879,-2.318 15.295,-3.477 22.247,-3.477c22.016,0 38.47,6.2 49.362,18.598c10.892,12.398 16.338,28.794 16.338,49.187l0,90.728c0,6.025 -2.086,11.066 -6.257,15.121c-4.172,4.056 -10.081,6.084 -17.729,6.084c-7.647,0 -13.557,-2.028 -17.728,-6.084c-4.172,-4.055 -6.257,-9.096 -6.257,-15.121l0,-90.728c0,-8.806 -2.028,-15.7 -6.083,-20.683c-4.056,-4.982 -9.56,-7.473 -16.512,-7.473c-6.953,0 -15.875,2.433 -26.767,7.3c0.232,1.158 0.406,2.259 0.522,3.302c0.116,1.043 0.174,2.144 0.174,3.302Z" style="fill:#194476;fill-rule:nonzero;"/><path d="M652.159,1207.7l0,-134.875c0,-6.025 2.085,-11.066 6.257,-15.121c4.171,-4.056 10.081,-6.083 17.728,-6.083c7.648,0 13.557,2.085 17.729,6.257c4.171,4.171 6.257,9.154 6.257,14.947l0,38.585l25.723,0c6.489,0 11.935,1.97 16.338,5.91c4.403,3.94 6.605,8.922 6.605,14.947c0,6.026 -2.202,10.95 -6.605,14.774c-4.403,3.824 -9.849,5.736 -16.338,5.736l-25.723,0l0,52.49c0,12.746 1.043,21.726 3.128,26.94c2.086,5.214 7.3,7.821 15.643,7.821c1.622,0 2.897,-0.058 3.824,-0.174c0.927,-0.115 1.622,-0.173 2.085,-0.173c11.124,0 18.656,1.506 22.595,4.519c3.94,3.012 5.91,7.763 5.91,14.252c0,5.098 -0.927,9.154 -2.781,12.166c-1.854,3.013 -4.345,5.33 -7.474,6.953c-3.128,1.622 -6.662,2.665 -10.602,3.128c-3.94,0.464 -8.111,0.695 -12.514,0.695c-13.441,0 -24.565,-1.622 -33.371,-4.866c-8.807,-3.245 -15.759,-7.995 -20.857,-14.252c-5.099,-6.257 -8.633,-13.963 -10.603,-23.117c-1.969,-9.154 -2.954,-19.64 -2.954,-31.459Z" style="fill:#194476;fill-rule:nonzero;"/><path d="M848.214,1213.61c-4.635,0 -8.98,-0.173 -13.036,-0.521c-4.055,-0.348 -8.632,-0.869 -13.73,-1.564l0,11.471c0,6.025 2.259,10.776 6.778,14.252c4.519,3.476 11.529,5.215 21.031,5.215c5.562,0 10.776,-0.638 15.642,-1.912c4.867,-1.275 10.081,-3.187 15.643,-5.736c0.695,-0.464 1.854,-0.927 3.476,-1.39c1.623,-0.464 3.94,-0.696 6.953,-0.696c4.171,0 7.647,0.638 10.428,1.912c2.781,1.275 4.983,2.839 6.605,4.693c1.622,1.854 2.781,3.882 3.476,6.083c0.695,2.202 1.043,4.345 1.043,6.431c0,6.025 -2.434,11.008 -7.3,14.948c-4.867,3.939 -10.776,7.068 -17.729,9.385c-6.952,2.318 -14.252,3.94 -21.899,4.867c-7.648,0.927 -14.253,1.39 -19.814,1.39c-11.356,0 -21.553,-1.564 -30.591,-4.693c-9.038,-3.128 -16.627,-7.415 -22.768,-12.861c-6.142,-5.446 -10.834,-11.877 -14.079,-19.293c-3.244,-7.416 -4.866,-15.411 -4.866,-23.985l0,-58.052c0,-8.806 1.564,-16.975 4.692,-24.507c3.129,-7.532 7.822,-14.079 14.079,-19.64c6.257,-5.562 14.02,-9.907 23.29,-13.036c9.27,-3.129 19.93,-4.693 31.981,-4.693c22.942,0 40.033,5.446 51.273,16.338c11.24,10.892 16.859,25.144 16.859,42.757c0,16.685 -5.33,29.663 -15.99,38.933c-10.66,9.27 -27.809,13.904 -51.447,13.904Zm19.814,-55.27c0,-6.953 -1.796,-11.935 -5.388,-14.948c-3.592,-3.013 -8.748,-4.519 -15.469,-4.519c-8.343,0 -14.716,2.028 -19.119,6.083c-4.403,4.056 -6.604,9.56 -6.604,16.512l0,14.948c5.561,0.463 10.66,0.811 15.295,1.042c4.634,0.232 7.879,0.348 9.733,0.348c6.72,0 11.993,-1.39 15.816,-4.171c3.824,-2.781 5.736,-7.88 5.736,-15.295Z" style="fill:#194476;fill-rule:nonzero;"/><path d="M1030.36,1145.82c-7.415,-0.463 -13.325,-0.637 -17.728,-0.521c-4.403,0.116 -9.617,1.448 -15.643,3.998c0.232,1.158 0.406,2.259 0.522,3.302c0.116,1.043 0.174,2.144 0.174,3.302l0,104.98c0,6.025 -2.318,11.124 -6.953,15.295c-4.635,4.172 -10.312,6.257 -17.033,6.257c-6.72,0 -12.398,-2.085 -17.033,-6.257c-4.635,-4.171 -6.952,-9.27 -6.952,-15.295l0,-104.98c0,-3.939 -0.29,-7.126 -0.869,-9.559c-0.58,-2.433 -1.565,-4.693 -2.955,-6.779c-1.391,-1.854 -2.549,-3.592 -3.476,-5.214c-0.927,-1.622 -1.391,-3.708 -1.391,-6.257c0,-6.257 2.376,-11.297 7.126,-15.121c4.751,-3.824 10.255,-5.736 16.512,-5.736c3.708,0 7.068,0.985 10.081,2.955c3.013,1.97 5.794,4.577 8.343,7.821c8.111,-4.635 15.932,-8.285 23.464,-10.95c7.531,-2.665 14.078,-3.997 19.64,-3.997c11.124,0 18.655,1.97 22.595,5.909c3.94,3.94 5.91,8.922 5.91,14.948c0,6.72 -2.376,12.166 -7.127,16.338c-4.75,4.171 -10.486,6.025 -17.207,5.561Z" style="fill:#194476;fill-rule:nonzero;"/><path d="M1136.04,1155.9l0,104.98c0,6.025 -1.97,11.066 -5.91,15.121c-3.94,4.056 -9.965,6.084 -18.076,6.084c-8.111,0 -14.136,-2.028 -18.076,-6.084c-3.94,-4.055 -5.909,-9.096 -5.909,-15.121l0,-105.327c0,-5.794 -0.29,-9.386 -0.869,-10.776c-0.58,-1.391 -1.217,-2.665 -1.912,-3.824c-2.549,-3.245 -4.172,-5.736 -4.867,-7.474c-0.695,-1.738 -1.043,-3.766 -1.043,-6.083c0,-5.794 2.202,-10.602 6.605,-14.426c4.403,-3.824 9.965,-5.736 16.685,-5.736c6.953,0 13.094,3.36 18.424,10.081c7.879,-5.33 15.759,-9.154 23.638,-11.471c7.879,-2.318 15.295,-3.477 22.247,-3.477c22.016,0 38.47,6.2 49.362,18.598c10.892,12.398 16.338,28.794 16.338,49.187l0,90.728c0,6.025 -2.086,11.066 -6.257,15.121c-4.172,4.056 -10.081,6.084 -17.729,6.084c-7.647,0 -13.557,-2.028 -17.728,-6.084c-4.172,-4.055 -6.257,-9.096 -6.257,-15.121l0,-90.728c0,-8.806 -2.028,-15.7 -6.084,-20.683c-4.055,-4.982 -9.559,-7.473 -16.511,-7.473c-6.953,0 -15.875,2.433 -26.767,7.3c0.232,1.158 0.406,2.259 0.522,3.302c0.116,1.043 0.174,2.144 0.174,3.302Z" style="fill:#194476;fill-rule:nonzero;"/><path d="M1292.12,1273.05c-1.159,3.244 -3.013,5.793 -5.562,7.647c-2.549,1.854 -5.098,2.781 -7.647,2.781c-3.94,0 -7.358,-1.274 -10.255,-3.824c-2.897,-2.549 -4.345,-5.909 -4.345,-10.08c0,-0.696 0.058,-1.623 0.174,-2.781c0.115,-1.159 0.289,-1.97 0.521,-2.434l67.785,-214.478c1.622,-5.331 3.766,-9.734 6.431,-13.21c2.665,-3.476 6.547,-5.214 11.645,-5.214c5.33,0 9.27,1.738 11.819,5.214c2.549,3.476 4.751,7.879 6.605,13.21l67.785,214.478c0.231,0.464 0.405,1.275 0.521,2.434c0.116,1.158 0.174,2.085 0.174,2.781c0,4.171 -1.391,7.531 -4.172,10.08c-2.78,2.55 -6.257,3.824 -10.428,3.824c-2.549,0 -5.214,-0.927 -7.995,-2.781c-2.781,-1.854 -4.635,-4.403 -5.562,-7.647l-14.947,-48.319l-87.947,0l-14.6,48.319Zm22.943,-75.433l71.608,0l-35.804,-117.842l-35.804,117.842Z" style="fill-rule:nonzero;"/><path d="M1538.93,1282.43c-6.025,0 -12.398,-0.579 -19.119,-1.738c-6.72,-1.158 -13.209,-2.781 -19.466,-4.866l0,65.699c0,3.708 -1.159,6.836 -3.476,9.386c-2.318,2.549 -5.678,3.823 -10.081,3.823c-4.403,0 -7.764,-1.274 -10.081,-3.823c-2.318,-2.55 -3.476,-5.678 -3.476,-9.386l0,-189.798c0,-5.794 -0.406,-10.487 -1.217,-14.079c-0.811,-3.592 -2.259,-7.01 -4.345,-10.254c-0.695,-1.159 -1.275,-2.202 -1.738,-3.129c-0.464,-0.927 -0.695,-2.201 -0.695,-3.824c0,-3.707 1.274,-6.662 3.823,-8.864c2.549,-2.201 5.33,-3.302 8.343,-3.302c2.781,0 5.272,0.753 7.474,2.259c2.201,1.507 4.229,3.535 6.083,6.084c7.879,-4.172 16.048,-7.764 24.507,-10.776c8.459,-3.013 17.207,-4.519 26.245,-4.519c18.308,0 32.096,6.083 41.366,18.249c9.27,12.167 13.905,27.983 13.905,47.45l0,45.19c0,10.428 -0.927,19.93 -2.781,28.504c-1.854,8.575 -5.041,15.933 -9.56,22.074c-4.519,6.141 -10.486,10.95 -17.902,14.426c-7.416,3.476 -16.685,5.214 -27.809,5.214Zm-38.585,-130.703l0,99.766c5.562,2.549 11.703,4.403 18.423,5.561c6.721,1.159 12.283,1.738 16.686,1.738c12.746,0 21.668,-3.707 26.766,-11.123c5.099,-7.416 7.648,-19.235 7.648,-35.457l0,-45.19c0,-27.578 -11.24,-41.366 -33.719,-41.366c-6.025,0 -12.282,1.043 -18.771,3.128c-6.489,2.086 -12.746,4.983 -18.771,8.691c1.158,5.793 1.738,10.544 1.738,14.252Z" style="fill-rule:nonzero;"/><path d="M1705.09,1282.43c-6.025,0 -12.398,-0.579 -19.119,-1.738c-6.72,-1.158 -13.209,-2.781 -19.466,-4.866l0,65.699c0,3.708 -1.159,6.836 -3.476,9.386c-2.318,2.549 -5.678,3.823 -10.081,3.823c-4.403,0 -7.764,-1.274 -10.081,-3.823c-2.317,-2.55 -3.476,-5.678 -3.476,-9.386l0,-189.798c0,-5.794 -0.406,-10.487 -1.217,-14.079c-0.811,-3.592 -2.259,-7.01 -4.345,-10.254c-0.695,-1.159 -1.275,-2.202 -1.738,-3.129c-0.464,-0.927 -0.695,-2.201 -0.695,-3.824c0,-3.707 1.274,-6.662 3.824,-8.864c2.549,-2.201 5.33,-3.302 8.342,-3.302c2.781,0 5.272,0.753 7.474,2.259c2.202,1.507 4.229,3.535 6.083,6.084c7.88,-4.172 16.049,-7.764 24.507,-10.776c8.459,-3.013 17.207,-4.519 26.245,-4.519c18.308,0 32.097,6.083 41.366,18.249c9.27,12.167 13.905,27.983 13.905,47.45l0,45.19c0,10.428 -0.927,19.93 -2.781,28.504c-1.854,8.575 -5.04,15.933 -9.559,22.074c-4.519,6.141 -10.487,10.95 -17.903,14.426c-7.415,3.476 -16.685,5.214 -27.809,5.214Zm-38.585,-130.703l0,99.766c5.562,2.549 11.703,4.403 18.424,5.561c6.72,1.159 12.282,1.738 16.685,1.738c12.746,0 21.668,-3.707 26.766,-11.123c5.099,-7.416 7.648,-19.235 7.648,-35.457l0,-45.19c0,-27.578 -11.24,-41.366 -33.719,-41.366c-6.025,0 -12.282,1.043 -18.771,3.128c-6.489,2.086 -12.746,4.983 -18.771,8.691c1.159,5.793 1.738,10.544 1.738,14.252Z" style="fill-rule:nonzero;"/></g><path d="M20.928,21.458l0,-17.03l-3.451,0c-0.651,0 -1.194,-0.2 -1.628,-0.602c-0.434,-0.402 -0.651,-0.885 -0.651,-1.449c0,-0.239 0.059,-0.478 0.179,-0.716c0.119,-0.239 0.282,-0.462 0.488,-0.668c0.206,-0.206 0.445,-0.374 0.716,-0.505c0.272,-0.13 0.57,-0.195 0.896,-0.195l11.462,0c0.586,0 1.117,0.201 1.595,0.602c0.478,0.402 0.716,0.896 0.716,1.482c0,0.564 -0.228,1.047 -0.683,1.449c-0.456,0.402 -0.999,0.602 -1.628,0.602l-3.452,0l0,17.03c0,0.564 -0.222,1.053 -0.667,1.465c-0.446,0.413 -0.983,0.619 -1.612,0.619c-0.63,0 -1.167,-0.206 -1.612,-0.619c-0.445,-0.412 -0.668,-0.901 -0.668,-1.465Z" style="fill:#205594;fill-rule:nonzero;"/><path d="M47.889,21.132c0,0.587 -0.222,1.086 -0.667,1.498c-0.445,0.413 -0.982,0.619 -1.612,0.619l-8.629,0c-0.803,0 -1.508,-0.168 -2.116,-0.505c-0.608,-0.336 -0.912,-0.939 -0.912,-1.807l0,-18.332c0,-0.564 0.239,-1.091 0.716,-1.579c0.478,-0.489 1.075,-0.733 1.791,-0.733l8.824,0c0.63,0 1.167,0.212 1.612,0.635c0.445,0.423 0.668,0.917 0.668,1.482c0,0.586 -0.223,1.069 -0.668,1.449c-0.445,0.379 -0.982,0.569 -1.612,0.569l-6.772,0l0,5.243l6.154,0c0.564,0 1.08,0.195 1.546,0.586c0.467,0.391 0.701,0.879 0.701,1.465c0,0.586 -0.218,1.08 -0.652,1.482c-0.434,0.401 -0.966,0.602 -1.595,0.602l-6.154,0l0,5.308l7.098,0c0.608,0 1.14,0.195 1.596,0.586c0.455,0.39 0.683,0.868 0.683,1.432Z" style="fill:#205594;fill-rule:nonzero;"/><path d="M54.337,8.531l0,6.447c0,1.39 0.287,2.497 0.862,3.322c0.576,0.825 1.591,1.237 3.045,1.237c0.999,0 1.899,-0.261 2.703,-0.782l0.325,-0.195c0.217,-0.13 0.413,-0.244 0.586,-0.342c0.174,-0.097 0.445,-0.146 0.814,-0.146c0.63,0 1.145,0.195 1.547,0.586c0.402,0.391 0.602,0.846 0.602,1.367c0,0.478 -0.19,0.928 -0.569,1.352c-0.38,0.423 -0.885,0.792 -1.515,1.107c-0.629,0.315 -1.345,0.564 -2.149,0.749c-0.803,0.184 -1.639,0.276 -2.507,0.276c-1.433,0 -2.67,-0.2 -3.712,-0.602c-1.042,-0.402 -1.905,-0.977 -2.588,-1.726c-0.684,-0.749 -1.189,-1.649 -1.515,-2.702c-0.325,-1.053 -0.488,-2.22 -0.488,-3.501l0,-6.447c0,-1.281 0.163,-2.447 0.488,-3.5c0.326,-1.053 0.831,-1.954 1.515,-2.703c0.683,-0.749 1.546,-1.324 2.588,-1.726c1.042,-0.401 2.279,-0.602 3.712,-0.602c0.868,0 1.704,0.092 2.507,0.277c0.804,0.184 1.52,0.434 2.149,0.749c0.63,0.314 1.135,0.683 1.515,1.107c0.379,0.423 0.569,0.874 0.569,1.351c0,0.521 -0.2,0.977 -0.602,1.368c-0.402,0.39 -0.917,0.586 -1.547,0.586c-0.369,0 -0.64,-0.049 -0.814,-0.147c-0.173,-0.097 -0.369,-0.211 -0.586,-0.342l-0.325,-0.195c-0.804,-0.521 -1.704,-0.781 -2.703,-0.781c-1.454,0 -2.469,0.407 -3.045,1.221c-0.575,0.814 -0.862,1.926 -0.862,3.337Z" style="fill:#205594;fill-rule:nonzero;"/></svg>